<svg width="17" height="18" viewBox="0 0 17 18" fill="none" xmlns="http://www.w3.org/2000/svg">
<path d="M9.50002 0C5.73002 0 2.69002 2.95 2.50002 6.66L0.580022 9.19C0.340022 9.5 0.580023 10 1.00002 10H2.50002V13C2.50002 14.11 3.39002 15 4.50002 15H5.50002V18H12.5V13.31C14.87 12.19 16.5 9.8 16.5 7C16.5 3.14 13.38 0 9.50002 0ZM10.5 11H8.50002V10H10.5V11ZM12.1 6.5C11.8337 6.94967 11.4545 7.32196 11 7.58V9H8.00002V7.58C6.57002 6.75 6.07002 4.92 6.90002 3.5C7.73002 2.08 9.57002 1.56 11 2.38C12.43 3.2 12.93 5.05 12.1 6.5Z" fill="#D3830A"/>
</svg>
