<svg width="15" height="14" viewBox="0 0 15 14" fill="none" xmlns="http://www.w3.org/2000/svg">
<path fill-rule="evenodd" clip-rule="evenodd" d="M10.38 8.388C10.1995 8.5692 9.96775 8.69067 9.71602 8.736L6.71602 9.276C6.51901 9.31165 6.31631 9.29946 6.12498 9.24044C5.93366 9.18143 5.75931 9.07732 5.61662 8.93687C5.47392 8.79643 5.36704 8.62376 5.30499 8.4334C5.24293 8.24304 5.22751 8.04056 5.26002 7.843L5.76002 4.803C5.80246 4.54414 5.92526 4.3052 6.11102 4.12L10.25 4.8963e-07H3.00002C2.6022 4.8963e-07 2.22067 0.158036 1.93936 0.43934C1.65806 0.720645 1.50002 1.10218 1.50002 1.5V10.419L0.526024 13.342C0.497788 13.4269 0.492865 13.5179 0.51177 13.6054C0.530676 13.6928 0.572716 13.7736 0.633503 13.8393C0.69429 13.905 0.771595 13.9532 0.857349 13.9788C0.943104 14.0044 1.03416 14.0066 1.12102 13.985L5.06102 13H13C13.3978 13 13.7794 12.842 14.0607 12.5607C14.342 12.2794 14.5 11.8978 14.5 11.5V4.25L10.38 8.388ZM12.819 0.0770005C12.6354 0.000456601 12.4332 -0.0195914 12.2381 0.0194198C12.0431 0.0584309 11.8641 0.154728 11.724 0.296L6.99402 5.006L6.49402 8.046L9.49403 7.506L14.204 2.776C14.2978 2.68304 14.3721 2.57244 14.4229 2.45058C14.4737 2.32872 14.4998 2.19801 14.4998 2.066C14.4998 1.93399 14.4737 1.80328 14.4229 1.68142C14.3721 1.55956 14.2978 1.44896 14.204 1.356L13.144 0.296C13.0513 0.20192 12.9408 0.127147 12.819 0.0760005V0.0770005Z" fill="#2A70F3"/>
</svg>
