<svg width="13" height="14" viewBox="0 0 13 14" fill="none" xmlns="http://www.w3.org/2000/svg">
<path d="M6.5625 9.51562C6.5625 9.58438 6.61562 9.64062 6.67969 9.64062H9.57031C9.63437 9.64062 9.6875 9.58438 9.6875 9.51562V8.76562C9.6875 8.69688 9.63437 8.64062 9.57031 8.64062H6.67969C6.61562 8.64062 6.5625 8.69688 6.5625 8.76562V9.51562ZM3.51719 9.61094L6.51719 7.09531C6.57656 7.04531 6.57656 6.95312 6.51719 6.90312L3.51719 4.38906C3.49908 4.37366 3.47693 4.36378 3.45337 4.36059C3.42981 4.35741 3.40583 4.36105 3.38428 4.37108C3.36273 4.38112 3.34451 4.39713 3.33179 4.41721C3.31906 4.43729 3.31237 4.4606 3.3125 4.48438V5.46406C3.3125 5.50156 3.32812 5.53594 3.35781 5.55937L5.07344 7L3.35781 8.44063C3.34385 8.45232 3.33257 8.46688 3.32475 8.48333C3.31693 8.49978 3.31275 8.51773 3.3125 8.53594V9.51562C3.3125 9.62187 3.43594 9.67969 3.51719 9.61094ZM12.25 0.75H0.75C0.473437 0.75 0.25 0.973437 0.25 1.25V12.75C0.25 13.0266 0.473437 13.25 0.75 13.25H12.25C12.5266 13.25 12.75 13.0266 12.75 12.75V1.25C12.75 0.973437 12.5266 0.75 12.25 0.75ZM11.625 12.125H1.375V1.875H11.625V12.125Z" fill="#1BBDDD"/>
</svg>
