<svg width="15" height="16" viewBox="0 0 15 16" fill="none" xmlns="http://www.w3.org/2000/svg">
<path d="M7.5 0.5C6 0.5 5 1.5 5 2.5C5 4 5.5 5 6 5.5V6H9V5.5C9.5 5 10 4 10 2.5C10 1.5 9 0.5 7.5 0.5ZM5.5125 2.54156L7.5 3.20312L9.4875 2.54156L8.2625 5.60313L7.7375 5.39687L8.5125 3.45937L7.5 3.79688L6.4875 3.45937L7.2625 5.39687L6.7375 5.60313L5.5125 2.54156ZM2.90937 5.0125C2.17812 5.10625 1.51562 5.96562 1.51562 7.07188C1.51562 7.68438 1.72812 8.225 2.0375 8.6L2.40937 9.04375L1.8375 9.15C1.43438 9.22812 1.14062 9.44063 0.8875 9.7875C0.634375 10.1344 0.440625 10.6156 0.30625 11.175C0.0625 12.1813 0.00625 13.4125 0 14.5H1.3375L1.4075 15.4375H4.8L4.8625 14.5H6.1375C6.1375 13.4 6.125 12.1531 5.90312 11.1344C5.77812 10.575 5.59375 10.0938 5.3375 9.75C5.08125 9.40625 4.77187 9.19375 4.31875 9.125L3.74062 9.03438L4.10625 8.575C4.40312 8.20312 4.60313 7.66875 4.60313 7.07188C4.60313 5.89062 3.86562 5.01562 3.05938 5.01562L2.90937 5.0125ZM11.7719 5.0125C11.0406 5.10625 10.3781 5.96562 10.3781 7.07188C10.3781 7.68438 10.5906 8.225 10.9 8.6L11.2719 9.04375L10.7 9.15C10.2969 9.22812 10.0031 9.44063 9.75 9.7875C9.49687 10.1344 9.30312 10.6156 9.16875 11.175C8.925 12.1813 8.86875 13.4125 8.8625 14.5H10.2L10.2688 15.4375H13.6625L13.725 14.5H15C15 13.4 14.9875 12.1531 14.7656 11.1344C14.6406 10.575 14.4563 10.0938 14.2 9.75C13.9437 9.40625 13.6344 9.19375 13.1812 9.125L12.6031 9.03438L12.9688 8.575C13.2656 8.20312 13.4656 7.66875 13.4656 7.07188C13.4656 5.89062 12.7281 5.01562 11.9219 5.01562L11.7719 5.0125ZM6 6.53125V7.09375H9V6.53125H6ZM6.5 7.59375V8.15625H8.5V7.59375H6.5Z" fill="#2AFEE8"/>
</svg>
